<?xml version="1.0" standalone="no"?>
<!DOCTYPE svg PUBLIC "-//W3C//DTD SVG 1.1//EN" "http://www.w3.org/Graphics/SVG/1.1/DTD/svg11.dtd">
<!--Generator: Xara Designer (www.xara.com), SVG filter version: 6.2.0.0-->
<svg stroke-width="0.501" stroke-linejoin="bevel" fill-rule="evenodd" xmlns:xlink="http://www.w3.org/1999/xlink" xmlns="http://www.w3.org/2000/svg" version="1.1" overflow="visible" width="389.601pt" height="277.404pt" viewBox="0 0 389.601 277.404">
 <defs>
	</defs>
 <g id="Document" fill="none" stroke="black" font-family="Times New Roman" font-size="16" transform="scale(1 -1)">
  <g id="Spread" transform="translate(0 -277.404)">
   <g id="Layer 1">
    <g id="Group" fill-rule="evenodd" stroke-linejoin="miter" stroke="none" stroke-width="0.013" fill="#000000" stroke-miterlimit="79.8403193612775">
     <g id="Group_1">
      <path d="M 126.205,28.017 C 136.788,30.22 144.02,40.371 148.087,50.769 L 142.5,50.769 C 140.079,50.769 137.72,50.83 135.393,50.985 C 132.971,45.678 129.309,41.179 123.815,40.247 C 122.107,41.798 119.903,42.761 117.452,42.761 C 112.114,42.761 107.736,38.199 107.768,32.518 C 107.799,26.869 112.206,22.275 117.545,22.275 C 121.393,22.275 124.621,24.666 126.205,28.017 Z" marker-start="none" marker-end="none"/>
      <path d="M 277.363,22.275 C 282.67,22.275 286.984,26.869 286.984,32.518 C 287.016,38.199 282.701,42.761 277.394,42.761 C 275.251,42.761 273.298,42.016 271.745,40.805 C 267.027,42.451 263.705,46.797 261.347,51.638 C 257.777,51.017 254.642,50.769 252.254,50.769 L 251.569,50.769 L 251.259,50.769 L 248.031,50.769 C 251.383,40.992 257.592,31.431 268.517,28.483 C 270.007,24.852 273.39,22.275 277.363,22.275 Z" marker-start="none" marker-end="none"/>
      <path d="M 261.286,217.882 L 241.482,238.802 C 237.881,237.809 226.74,230.265 223.418,226.542 L 249.74,198.67 C 253.154,202.176 260.322,213.846 261.286,217.882 Z" marker-start="none" marker-end="none"/>
      <path d="M 223.791,210.029 C 224.255,210.029 224.752,210.216 225.126,210.619 L 227.948,213.599 C 228.074,213.785 228.198,214.002 228.322,214.188 C 228.664,214.965 228.477,215.926 227.948,216.516 C 227.359,217.168 226.461,217.292 225.745,216.95 C 225.56,216.826 225.342,216.702 225.126,216.516 L 222.331,213.599 C 221.617,212.761 221.617,211.456 222.331,210.619 C 222.736,210.216 223.262,210.029 223.791,210.029 Z" marker-start="none" marker-end="none"/>
      <path d="M 215.347,201.184 C 215.876,201.184 216.402,201.368 216.744,201.803 L 219.6,204.722 C 220.345,205.559 220.345,206.862 219.6,207.67 C 218.792,208.476 217.552,208.476 216.744,207.67 L 214.044,204.722 C 213.238,203.945 213.238,202.579 214.044,201.803 C 214.386,201.368 214.883,201.184 215.347,201.184 Z" marker-start="none" marker-end="none"/>
      <path d="M 207.03,192.305 C 207.494,192.305 208.023,192.523 208.457,192.926 L 211.219,195.874 C 211.995,196.714 211.995,198.017 211.219,198.854 C 210.474,199.662 209.202,199.662 208.457,198.854 L 205.664,195.874 C 204.888,195.069 204.888,193.765 205.664,192.926 C 206.004,192.523 206.533,192.305 207.03,192.305 Z" marker-start="none" marker-end="none"/>
      <path d="M 233.908,208.291 C 234.187,209.066 234.064,210.029 233.505,210.619 C 232.884,211.271 232.015,211.395 231.333,211.053 C 231.115,210.961 230.899,210.806 230.712,210.619 L 227.948,207.67 C 227.174,206.862 227.174,205.559 227.948,204.722 C 228.29,204.317 228.819,204.132 229.315,204.132 C 229.843,204.132 230.309,204.317 230.712,204.722 L 233.505,207.67 C 233.692,207.886 233.784,208.073 233.908,208.291 Z" marker-start="none" marker-end="none"/>
      <path d="M 225.126,201.803 C 224.381,202.579 223.139,202.579 222.331,201.803 L 219.6,198.854 C 218.792,198.017 218.792,196.714 219.6,195.874 C 219.972,195.471 220.469,195.285 220.996,195.285 C 221.462,195.285 221.991,195.471 222.331,195.874 L 225.126,198.854 C 225.932,199.662 225.932,200.965 225.126,201.803 Z" marker-start="none" marker-end="none"/>
      <path d="M 216.744,192.957 C 216.062,193.795 214.728,193.795 214.044,192.957 L 211.219,189.978 C 210.474,189.172 210.474,187.837 211.219,187.061 C 211.592,186.626 212.119,186.408 212.617,186.408 C 213.114,186.408 213.609,186.626 214.044,187.061 L 216.807,189.978 C 217.552,190.815 217.552,192.12 216.744,192.957 Z" marker-start="none" marker-end="none"/>
      <path d="M 234.903,198.204 C 235.43,198.204 235.896,198.42 236.267,198.854 L 239.062,201.803 C 239.247,201.958 239.371,202.176 239.497,202.392 C 239.776,203.169 239.652,204.101 239.062,204.722 C 238.473,205.372 237.633,205.528 236.888,205.156 C 236.701,205.062 236.454,204.938 236.267,204.722 L 233.505,201.803 C 232.76,200.965 232.76,199.662 233.505,198.854 C 233.877,198.42 234.406,198.204 234.903,198.204 Z" marker-start="none" marker-end="none"/>
      <path d="M 226.521,189.388 C 227.019,189.388 227.545,189.575 227.948,189.978 L 230.712,192.957 C 231.489,193.795 231.489,195.069 230.712,195.874 C 229.936,196.714 228.693,196.714 227.948,195.874 L 225.126,192.957 C 224.381,192.12 224.381,190.815 225.126,189.978 C 225.56,189.575 226.024,189.388 226.521,189.388 Z" marker-start="none" marker-end="none"/>
      <path d="M 218.203,180.511 C 218.669,180.511 219.195,180.759 219.6,181.164 L 222.331,184.081 C 223.139,184.918 223.139,186.221 222.331,187.061 C 221.617,187.837 220.345,187.837 219.6,187.061 L 216.744,184.081 C 216.062,183.273 216.062,181.938 216.744,181.164 C 217.179,180.759 217.708,180.511 218.203,180.511 Z" marker-start="none" marker-end="none"/>
      <path d="M 307.036,155.06 L 301.107,155.06 L 295.211,155.06 L 295.211,250.938 C 295.211,253.236 293.41,255.129 291.267,255.129 L 274.167,255.129 C 273.203,255.129 272.211,254.755 271.529,254.01 L 257.343,240.229 C 254.115,241.098 250.453,239.918 248.218,238.957 L 261.689,224.618 C 262.681,227.317 263.613,230.949 262.836,234.269 L 275.717,246.778 L 287.358,246.778 L 287.358,155.06 L 88.461,155.06 L 82.533,155.06 C 78.187,155.06 74.68,151.304 74.68,146.71 L 74.68,138.391 C 74.68,133.766 78.187,130.041 82.533,130.041 L 83.433,130.041 L 85.171,130.041 L 87.437,130.041 C 88.027,126.782 88.835,123.089 89.796,118.806 L 95.353,90.841 C 103.05,60.609 118.632,55.674 137.162,55.052 C 138.962,55.021 140.761,54.989 142.624,54.989 L 149.7,54.989 L 246.418,54.989 C 246.418,54.989 246.418,55.021 246.418,55.021 C 246.418,55.021 246.418,54.989 246.418,54.989 L 251.912,54.989 C 254.147,54.989 256.692,55.115 259.454,55.55 L 259.454,55.55 C 271.558,57.443 287.263,64.766 294.621,88.606 L 303.59,130.041 L 305.919,130.041 L 307.036,130.041 C 307.223,130.041 307.439,130.104 307.625,130.104 C 311.692,130.446 314.92,133.985 314.92,138.391 L 314.92,146.71 C 314.92,151.304 311.382,155.06 307.036,155.06 Z M 244.246,67.902 L 244.246,67.902 C 244.246,67.841 244.275,67.809 244.275,67.809 C 244.275,67.809 244.246,67.841 244.246,67.902 Z" marker-start="none" marker-end="none"/>
     </g>
    </g>
   </g>
  </g>
 </g>
</svg>
