<?xml version="1.0" encoding="UTF-8"?>
<svg width="254px" height="217px" viewBox="0 0 254 217" version="1.1" xmlns="http://www.w3.org/2000/svg" xmlns:xlink="http://www.w3.org/1999/xlink">
    <!-- Generator: Sketch 48.2 (47327) - http://www.bohemiancoding.com/sketch -->
    <title>sale</title>
    <desc>Created with Sketch.</desc>
    <defs></defs>
    <g id="Page-1" stroke="none" stroke-width="1" fill="none" fill-rule="evenodd">
        <g id="sale" transform="translate(-1.000000, 0.000000)" fill="#000000">
            <g id="Document" transform="translate(127.500000, 108.500000) scale(-1, 1) rotate(-180.000000) translate(-127.500000, -108.500000) ">
                <g id="Spread" transform="translate(0.000000, 0.596000)">
                    <g id="Layer-1">
                        <path d="M38.979,0.346 L38.979,101.7 L0.976,101.7 L127.676,215.732 L254.376,101.7 L216.373,101.7 L216.373,0.346 L38.979,0.346 Z M178.437,17.688 C178.754,18.094 179.058,18.603 179.341,19.2 C179.623,19.822 179.928,20.511 180.267,21.312 C180.617,22.08 180.864,22.621 181.001,22.961 C186.872,36.136 189.807,46.569 189.807,54.223 C189.807,63.437 188.598,71.125 186.126,77.324 C178.641,95.953 158.442,105.268 125.451,105.268 L109.928,105.268 L109.928,123.026 C109.928,124.235 109.476,125.263 108.607,126.143 C107.726,127.024 106.676,127.464 105.479,127.464 C104.272,127.464 103.244,127.024 102.352,126.143 L66.855,90.635 C65.975,89.766 65.534,88.715 65.534,87.519 C65.534,86.31 65.975,85.283 66.855,84.38 L102.352,48.884 C103.244,48.014 104.282,47.585 105.479,47.585 C106.676,47.585 107.726,48.014 108.607,48.884 C109.476,49.775 109.928,50.814 109.928,52.011 L109.928,69.759 L125.451,69.759 C129.979,69.759 134.044,69.623 137.623,69.353 C141.201,69.082 144.769,68.574 148.303,67.863 C151.849,67.151 154.908,66.157 157.539,64.926 C160.135,63.662 162.574,62.059 164.855,60.094 C167.114,58.131 168.965,55.793 170.388,53.094 C171.832,50.385 172.95,47.189 173.764,43.475 C174.553,39.772 174.971,35.606 174.971,30.92 C174.971,28.38 174.858,25.546 174.633,22.407 C174.633,22.114 174.553,21.572 174.441,20.781 C174.328,19.969 174.271,19.347 174.271,18.941 C174.271,18.241 174.474,17.654 174.87,17.192 C175.265,16.74 175.795,16.513 176.496,16.513 C177.23,16.513 177.873,16.909 178.437,17.688 Z" id="Shape"></path>
                    </g>
                </g>
            </g>
        </g>
    </g>
</svg>