<?xml version="1.0" encoding="UTF-8"?>
<svg width="239px" height="231px" viewBox="0 0 239 231" version="1.1" xmlns="http://www.w3.org/2000/svg" xmlns:xlink="http://www.w3.org/1999/xlink">
    <!-- Generator: Sketch 48.2 (47327) - http://www.bohemiancoding.com/sketch -->
    <title>apartment_2</title>
    <desc>Created with Sketch.</desc>
    <defs></defs>
    <g id="Page-1" stroke="none" stroke-width="1" fill="none" fill-rule="evenodd">
        <g id="apartment_2" fill="#000000" fill-rule="nonzero">
            <g id="Document" transform="translate(119.500000, 116.000000) scale(-1, 1) rotate(-180.000000) translate(-119.500000, -116.000000) ">
                <g id="Spread" transform="translate(0.000000, 0.596000)">
                    <g id="Layer-1">
                        <g id="Group">
                            <g id="Group_1">
                                <polygon id="Shape" points="142.021 203.866 76.087 203.866 76.087 211.157 142.021 211.157"></polygon>
                                <polygon id="Shape" points="142.021 185.636 76.087 185.636 76.087 192.927 142.021 192.927"></polygon>
                                <path d="M229.247,22.248 L229.247,184.084 L169.876,184.084 L162.363,179.917 L162.363,230.647 L55.746,230.647 L55.746,169.631 L10.367,169.631 L10.367,22.248 L0.625,22.248 L0.625,0.757 L238.975,0.757 L238.975,22.248 L229.247,22.248 Z M58.352,51.683 L27.983,51.683 L27.983,68.867 L58.352,68.867 L58.352,51.683 Z M58.352,80.323 L27.983,80.323 L27.983,97.507 L58.352,97.507 L58.352,80.323 Z M58.352,108.964 L27.983,108.964 L27.983,126.148 L58.352,126.148 L58.352,108.964 Z M58.352,137.604 L27.983,137.604 L27.983,154.788 L58.352,154.788 L58.352,137.604 Z M115.633,51.683 L85.264,51.683 L85.264,68.867 L115.633,68.867 L115.633,51.683 Z M115.633,80.323 L85.264,80.323 L85.264,97.507 L115.633,97.507 L115.633,80.323 Z M115.633,108.964 L85.264,108.964 L85.264,126.148 L115.633,126.148 L115.633,108.964 Z M115.633,137.604 L85.264,137.604 L85.264,154.788 L115.633,154.788 L115.633,137.604 Z M152.468,174.412 L144.106,169.771 L144.106,96.992 L144.106,22.248 L133.263,22.248 L133.263,96.992 L133.263,169.631 L65.627,169.631 L65.627,220.766 L152.468,220.766 L152.468,174.412 Z M218.181,68.086 L180.941,68.086 L180.941,83.18 L218.181,83.18 L218.181,68.086 Z M218.181,96.727 L180.941,96.727 L180.941,111.821 L218.181,111.821 L218.181,96.727 Z M218.181,125.367 L180.941,125.367 L180.941,140.461 L218.181,140.461 L218.181,125.367 Z M218.181,154.008 L180.941,154.008 L180.941,169.102 L218.181,169.102 L218.181,154.008 Z" id="Shape"></path>
                            </g>
                        </g>
                    </g>
                </g>
            </g>
        </g>
    </g>
</svg>