<?xml version="1.0" encoding="UTF-8"?>
<svg width="94px" height="94px" viewBox="0 0 94 94" version="1.1" xmlns="http://www.w3.org/2000/svg" xmlns:xlink="http://www.w3.org/1999/xlink">
    <!-- Generator: Sketch 48.2 (47327) - http://www.bohemiancoding.com/sketch -->
    <title>Group 5</title>
    <desc>Created with Sketch.</desc>
    <defs>
        <filter x="-2.2%" y="-1.1%" width="104.3%" height="104.3%" filterUnits="objectBoundingBox" id="filter-1">
            <feOffset dx="0" dy="1" in="SourceAlpha" result="shadowOffsetOuter1"></feOffset>
            <feGaussianBlur stdDeviation="0.5" in="shadowOffsetOuter1" result="shadowBlurOuter1"></feGaussianBlur>
            <feColorMatrix values="0 0 0 0 0   0 0 0 0 0   0 0 0 0 0  0 0 0 0.193331069 0" type="matrix" in="shadowBlurOuter1" result="shadowMatrixOuter1"></feColorMatrix>
            <feMerge>
                <feMergeNode in="shadowMatrixOuter1"></feMergeNode>
                <feMergeNode in="SourceGraphic"></feMergeNode>
            </feMerge>
        </filter>
    </defs>
    <g id="Property-Use" stroke="none" stroke-width="1" fill="none" fill-rule="evenodd" transform="translate(-561.000000, -483.000000)">
        <g id="Group-5" filter="url(#filter-1)" transform="translate(562.000000, 483.000000)">
            <path d="M44.8051948,4.83676863 L46.5195359,3.18124871 L76.3988673,34.1222022 L72.9609836,37.4421279 L44.9061167,8.39046276 L16.6595982,41.2791193 L10.3728693,41.2791193 L43.0908537,3.18124871 L44.8051948,4.83676863 Z" id="Combined-Shape" fill="#7B65CA"></path>
            <rect id="Rectangle-4-Copy" fill="#9B84E3" transform="translate(46.000000, 59.740260) rotate(-8.000000) translate(-46.000000, -59.740260) " x="3.58441558" y="33.4545455" width="84.8311688" height="52.5714286"></rect>
            <rect id="Rectangle-4" fill="#604EAB" transform="translate(46.000000, 59.740260) rotate(-8.000000) translate(-46.000000, -59.740260) " x="9.55844156" y="40.6233766" width="72.8831169" height="38.2337662"></rect>
            <circle id="Oval-3" fill="#9B84E3" cx="45.4025974" cy="5.97402597" r="5.97402597"></circle>
            <circle id="Oval-3-Copy" fill="#F4F5F9" cx="45.4025974" cy="5.97402597" r="3.58441558"></circle>
            <g id="Group-3" transform="translate(45.128498, 59.201001) rotate(-9.000000) translate(-45.128498, -59.201001) translate(21.232394, 51.434767)" fill="#9B84E3">
                <path d="M7.87316858,11.3067227 C7.87316858,11.0713811 7.84188696,10.8585386 7.77932279,10.6681888 C7.71675861,10.4778389 7.59327853,10.2978745 7.40887884,10.1282902 C7.22447916,9.95870578 6.96599419,9.79085436 6.63341619,9.62473088 C6.30083819,9.45860741 5.86454191,9.28210386 5.32451426,9.09521495 C4.69228677,8.87371697 4.08311838,8.6245355 3.49699081,8.34766303 C2.91086325,8.07079057 2.39060051,7.74200945 1.936187,7.36130981 C1.4817735,6.98061018 1.11791886,6.53589045 0.844612188,6.0271373 C0.571305513,5.51838415 0.434654225,4.92484771 0.434654225,4.24651017 C0.434654225,3.59585989 0.572951914,3.00924515 0.849551441,2.48664838 C1.12615097,1.9640516 1.51140881,1.51933188 2.00533654,1.15247587 C2.49926427,0.785619852 3.08373664,0.501829834 3.7587712,0.301097298 C4.43380576,0.100364762 5.16974703,0 5.9666171,0 C6.75031575,0 7.47143942,0.110747324 8.13000972,0.332245295 C8.78858002,0.553743266 9.35494198,0.868680968 9.8291126,1.27706785 C10.3032832,1.68545474 10.6737235,2.17862641 10.9404444,2.75659768 C11.2071654,3.33456895 11.3405239,3.9800182 11.3405239,4.69296479 L7.88304709,4.69296479 C7.88304709,4.40917051 7.84188706,4.14787605 7.75956578,3.90907355 C7.67724449,3.67027105 7.55211801,3.46608067 7.38418258,3.29649628 C7.21624715,3.1269119 7.00880062,2.99366903 6.76183676,2.89676366 C6.51487289,2.7998583 6.22345991,2.75140635 5.88758905,2.75140635 C5.5583039,2.75140635 5.26853732,2.79120617 5.0182806,2.870807 C4.76802389,2.95040783 4.55893095,3.06115516 4.39099553,3.2030523 C4.2230601,3.34494943 4.09628722,3.50760957 4.01067308,3.69103757 C3.92505894,3.87446558 3.88225251,4.07000382 3.88225251,4.27765817 C3.88225251,4.50607795 3.94316935,4.71199876 4.06500486,4.89542677 C4.18684036,5.07885477 4.36135888,5.25189747 4.58856563,5.41456004 C4.81577238,5.57722261 5.09236776,5.72950018 5.41836006,5.87139732 C5.74435236,6.01329446 6.1114998,6.15345904 6.51981338,6.29189527 C7.28375493,6.5480023 7.96536497,6.83179232 8.56466394,7.14327384 C9.16396292,7.45475536 9.66940804,7.81122331 10.0810145,8.21268838 C10.4926209,8.61415345 10.8054371,9.06752531 11.0194725,9.57281756 C11.2335078,10.0781098 11.3405239,10.6491507 11.3405239,11.2859574 C11.3405239,11.9642949 11.213751,12.5682139 10.9602014,13.0977325 C10.7066519,13.6272511 10.3477364,14.0719708 9.88344438,14.431905 C9.41915231,14.7918392 8.85937596,15.0652467 8.20409851,15.2521356 C7.54882106,15.4390245 6.81946539,15.5324675 6.01600962,15.5324675 C5.52208189,15.5324675 5.03145438,15.4892069 4.54411236,15.4026842 C4.05677033,15.3161616 3.59083884,15.1829187 3.14630388,15.0029516 C2.70176893,14.8229845 2.28687586,14.5962986 1.90161224,14.322887 C1.51634861,14.0494754 1.1837756,13.7224248 0.903883219,13.3417251 C0.623990841,12.9610255 0.403373099,12.5284187 0.242023376,12.0438919 C0.0806736518,11.5593651 0,11.0194719 0,10.4241961 L3.4772338,10.4241961 C3.4772338,10.8671921 3.53321144,11.2392339 3.64516839,11.5403327 C3.75712534,11.8414315 3.92176545,12.0854217 4.13909365,12.2723106 C4.35642185,12.4591995 4.62149242,12.5924424 4.93431331,12.6720432 C5.2471342,12.751644 5.60769603,12.7914439 6.01600962,12.7914439 C6.34529477,12.7914439 6.62682935,12.751644 6.86062181,12.6720432 C7.09441427,12.5924424 7.28704319,12.4851559 7.43851436,12.3501806 C7.58998553,12.2152052 7.7002944,12.0577364 7.76944428,11.8777693 C7.83859416,11.6978022 7.87316858,11.5074552 7.87316858,11.3067227 Z M21.2881785,12.5007292 L16.5366176,12.5007292 L15.7068231,15.3248142 L12.0023837,15.3248142 L17.2775055,0.207653309 L20.5374122,0.207653309 L25.8520479,15.3248142 L22.1278515,15.3248142 L21.2881785,12.5007292 Z M17.366412,9.68702688 L20.4583841,9.68702688 L18.9074588,4.44378082 L17.366412,9.68702688 Z M30.3665248,12.5214945 L36.4022914,12.5214945 L36.4022914,15.3248142 L26.8991695,15.3248142 L26.8991695,0.207653309 L30.3665248,0.207653309 L30.3665248,12.5214945 Z M46.7846003,8.91870963 L41.3316654,8.91870963 L41.3316654,12.5214945 L47.7724508,12.5214945 L47.7724508,15.3248142 L37.8643101,15.3248142 L37.8643101,0.207653309 L47.7922078,0.207653309 L47.7922078,3.02135565 L41.3316654,3.02135565 L41.3316654,6.20883395 L46.7846003,6.20883395 L46.7846003,8.91870963 Z" id="SALE"></path>
            </g>
        </g>
    </g>
</svg>